<svg xmlns="http://www.w3.org/2000/svg" width="50" height="48" viewBox="0 0 50 48" fill="none">
  <path d="M9.4098 0.5H41.2047C45.7433 0.5 49.4227 4.17934 49.4227 8.7179V39.282C49.4227 43.8207 45.7433 47.5 41.2047 47.5H9.4098C4.87123 47.4999 1.19189 43.8207 1.19189 39.282V8.7179C1.19189 4.17925 4.87123 0.5 9.4098 0.5Z" stroke="#131313"/>
  <path d="M21.4879 27.2717H14.5316L13.1164 31.6767C13.0971 31.7569 13.0505 31.8278 12.9845 31.8773C12.9185 31.9268 12.8374 31.9517 12.755 31.9477H9.23174C9.03084 31.9477 8.96054 31.8372 9.02093 31.6164L15.0436 14.3428C15.1038 14.1621 15.1641 13.9855 15.2243 13.7545C15.3032 13.3527 15.3435 12.9444 15.3447 12.5349C15.3406 12.5063 15.3433 12.4771 15.3524 12.4497C15.3616 12.4222 15.377 12.3973 15.3975 12.3769C15.4179 12.3564 15.4428 12.341 15.4703 12.3319C15.4977 12.3227 15.5269 12.3201 15.5555 12.3241H20.3436C20.4838 12.3241 20.5641 12.3743 20.5846 12.4747L27.4202 31.6465C27.4805 31.8474 27.4202 31.9479 27.2396 31.9477H23.3248C23.2576 31.9552 23.1899 31.9379 23.1345 31.8991C23.0791 31.8603 23.0397 31.8026 23.0237 31.7369L21.4879 27.2717ZM17.9947 15.7581H17.9645L15.6157 23.5575H20.3737L17.9947 15.7581ZM38.5021 25.5572H32.5698C32.6425 26.1442 32.8374 26.7094 33.142 27.2163C33.4788 27.7183 33.955 28.1109 34.5121 28.3456C35.2671 28.6722 36.0837 28.8323 36.9062 28.8148C37.5588 28.8022 38.2088 28.7309 38.8485 28.6015C39.4207 28.5242 39.9814 28.3781 40.5185 28.1662C40.6187 28.0863 40.6691 28.1362 40.6691 28.3168V31.1776C40.6741 31.2555 40.6585 31.3334 40.6239 31.4034C40.5894 31.4582 40.5431 31.5045 40.4884 31.539C39.8926 31.8028 39.2657 31.9896 38.6227 32.0948C37.7492 32.2588 36.8614 32.3345 35.9728 32.3207C34.5471 32.3207 33.3526 32.0999 32.3892 31.6582C31.4786 31.257 30.6743 30.6486 30.0405 29.8815C29.4484 29.1587 29.008 28.324 28.7456 27.4273C28.4857 26.5422 28.3539 25.6245 28.3541 24.7021C28.3513 23.6948 28.5089 22.6936 28.8209 21.7359C29.1213 20.8018 29.5965 19.9331 30.2211 19.1763C31.5976 17.5084 33.4921 16.8133 35.6114 16.8133C37.4377 16.8133 39.311 17.4181 40.4898 18.8751C40.9831 19.5117 41.3603 20.2304 41.6039 20.9981C41.8412 21.7379 41.9631 22.5098 41.9653 23.2867C41.9653 23.7285 41.9502 24.13 41.9201 24.4912C41.89 24.8526 41.865 25.1136 41.8449 25.2742C41.8371 25.3406 41.8051 25.4018 41.7552 25.4462C41.7052 25.4906 41.6407 25.5151 41.5739 25.5151C41.4534 25.5151 41.2476 25.5302 40.9566 25.5603C40.6653 25.5903 40.304 25.6104 39.8726 25.6205C39.4403 25.6307 38.984 25.5572 38.5021 25.5572ZM32.5698 22.8139H36.5147C36.9965 22.8139 37.3528 22.8089 37.5837 22.7988C37.7382 22.7834 37.8873 22.734 38.0205 22.6541V22.4734C38.0144 22.2379 37.9738 22.0045 37.9 21.7808C37.7376 21.2671 37.4109 20.8209 36.9702 20.5108C36.5296 20.2007 35.9993 20.0439 35.4609 20.0644C34.9541 20.0337 34.4494 20.1512 34.0082 20.4025C33.5671 20.6538 33.2086 21.0281 32.9765 21.4796C32.7701 21.8996 32.6327 22.3502 32.5698 22.8139Z" fill="#6A6AF1"/>
</svg>