<svg xmlns="http://www.w3.org/2000/svg" width="50" height="48" viewBox="0 0 50 48" fill="none">
  <path d="M8.94843 0.5H40.7433C45.2876 0.5 48.9611 4.17353 48.9611 8.71796V39.282C48.9611 43.8264 45.2876 47.5 40.7432 47.5H8.94843C4.40401 47.4999 0.730469 43.8264 0.730469 39.2819V8.71796C0.730469 4.17354 4.40401 0.5 8.94843 0.5Z" stroke="#131313"/>
  <path d="M24.755 29.5948H18.1999L16.8607 33.7357C16.8255 33.8943 16.6845 34 16.526 33.9824H13.2132C13.0193 33.9824 12.9664 33.8767 13.0193 33.6652L18.6933 17.3305C18.7461 17.1543 18.799 16.9604 18.8695 16.749C18.9399 16.3789 18.9752 15.9913 18.9752 15.6036C18.9576 15.5154 19.028 15.4274 19.1162 15.4097H23.68C23.821 15.4097 23.8915 15.4626 23.9091 15.5507L30.3408 33.7004C30.3937 33.8943 30.3408 33.9823 30.1646 33.9823H26.4818C26.3584 33.9999 26.235 33.9119 26.1999 33.7885L24.755 29.5948ZM19.2219 26.0176H23.6977L21.4422 18.6696L19.2219 26.0176ZM34.1822 18.423C33.6007 18.4406 33.0368 18.2116 32.6139 17.8062C32.2086 17.3657 31.9971 16.7842 32.0148 16.1851C31.9972 15.586 32.2263 15.0221 32.6492 14.6168C33.0721 14.2115 33.636 14 34.2175 14C34.9047 14 35.4333 14.2115 35.821 14.6168C36.2114 15.044 36.42 15.6066 36.4025 16.1851C36.4201 16.7842 36.2086 17.3657 35.7857 17.8062C35.3805 18.2291 34.7813 18.4582 34.1822 18.423ZM32.2087 33.7181V20.1498C32.2087 19.9736 32.2791 19.9031 32.4377 19.9031H35.9267C36.0853 19.9031 36.1557 19.9912 36.1557 20.1498V33.7181C36.1557 33.9119 36.0853 34 35.9267 34H32.473C32.2967 34 32.2087 33.8943 32.2087 33.7181Z" fill="#FF9A00"/>
</svg>