<svg xmlns="http://www.w3.org/2000/svg" width="49" height="48" viewBox="0 0 49 48" fill="none">
  <path d="M9.42288 0.5H40.4229C44.8349 0.5 48.4229 4.16153 48.4229 8.71796V39.282C48.4229 43.8384 44.8349 47.5 40.4228 47.5H9.42288C5.01082 47.4999 1.42285 43.8384 1.42285 39.2819V8.71796C1.42285 4.16153 5.01082 0.5 9.42288 0.5Z" stroke="#131313"/>
  <path d="M24.4932 24C24.4932 21.2386 26.7317 19 29.4932 19C32.2546 19 34.4931 21.2386 34.4931 24C34.4931 26.7615 32.2545 29 29.4932 29C26.7317 29 24.4932 26.7614 24.4932 24Z" fill="#00BCFF"/>
  <path d="M14.4932 34.0005C14.4932 31.2391 16.7317 29.0005 19.4932 29.0005L22.1577 27.5938L24.4931 29.0005V34.0005C24.4931 36.762 22.2546 39.0005 19.4932 39.0005C16.7317 39.0005 14.4932 36.7619 14.4932 34.0005Z" fill="#00CF7F"/>
  <path d="M24.4932 9L21.7725 13.7268L24.4932 19H29.4231C32.1845 19 34.423 16.7614 34.423 14C34.423 11.2386 32.1845 9 29.4231 9H24.4932Z" fill="#FF7361"/>
  <path d="M14.4229 14C14.4229 16.7614 16.6614 19 19.4228 19L22.0752 20.0244L24.493 19V9H19.4228C16.6614 9 14.4229 11.2386 14.4229 14Z" fill="#FF4D12"/>
  <path d="M14.4932 24C14.4932 26.7615 16.7317 29 19.4932 29H24.4931V19H19.4932C16.7317 19 14.4932 21.2386 14.4932 24Z" fill="#B659FF"/>
</svg>