<svg xmlns="http://www.w3.org/2000/svg" width="32" height="32" viewBox="0 0 32 32" fill="none">
  <g clip-path="url(#clip0_655_5388)">
    <circle cx="16" cy="16" r="16" fill="#ECEBFD"/>
    <path d="M16 8C12.6955 8 10 10.6955 10 14C10 18.1015 15.3731 24.1373 15.597 24.3881C15.8119 24.6298 16.1881 24.6298 16.403 24.3881C16.6358 24.1373 22 18.1015 22 14C22 10.6955 19.3045 8 16 8Z" stroke="#4F43FF" stroke-width="1.3" stroke-linecap="round" stroke-linejoin="round"/>
    <path d="M16.3445 16.0907C16.6244 16.0523 16.8938 15.9583 17.1369 15.8144C17.38 15.6704 17.5919 15.4794 17.7602 15.2525C17.9285 15.0256 18.0498 14.7673 18.117 14.4929C18.1842 14.2185 18.1959 13.9335 18.1515 13.6545C18.1071 13.3754 18.0074 13.1081 17.8583 12.8681C17.7092 12.6282 17.5138 12.4204 17.2833 12.2569C17.0529 12.0935 16.7921 11.9777 16.5163 11.9164C16.2406 11.855 15.9553 11.8493 15.6773 11.8997C15.1311 11.9986 14.6454 12.3075 14.3243 12.7603C14.0032 13.2131 13.8722 13.7736 13.9595 14.3218C14.0468 14.8699 14.3453 15.3621 14.7911 15.6928C15.237 16.0235 15.7946 16.1663 16.3445 16.0907Z" stroke="#4F43FF" stroke-width="1.3" stroke-linecap="round" stroke-linejoin="round"/>
  </g>
  <defs>
    <clipPath id="clip0_655_5388">
      <rect width="32" height="32" fill="white"/>
    </clipPath>
  </defs>
</svg>