<svg xmlns="http://www.w3.org/2000/svg" width="50" height="48" viewBox="0 0 50 48" fill="none">
  <path d="M9.17937 0.5H40.9742C45.5186 0.5 49.1922 4.17354 49.1922 8.71795V39.2821C49.1922 43.8265 45.5186 47.5 40.9742 47.5H9.17937C4.63497 47.5 0.961426 43.8264 0.961426 39.2821V8.71795C0.961426 4.17354 4.63497 0.5 9.17937 0.5Z" stroke="#131313"/>
  <path d="M18.0426 14C19.591 14 20.8751 14.1888 21.9326 14.5853C23.7084 15.2512 25.1688 16.4786 25.8416 18.2866C26.1248 19.0797 26.2759 19.8917 26.2759 20.7415C26.2759 23.5257 24.8069 26.069 22.1026 27.0675C20.8186 27.5396 19.4023 27.7095 17.8538 27.7095C17.4006 27.7095 17.0985 27.7095 16.9097 27.6907C16.7208 27.6718 16.4565 27.6718 16.0977 27.6718V33.7335C16.1166 33.8656 16.0222 33.9789 15.89 33.9979H12.2266C12.0755 33.9979 12 33.9224 12 33.7524V14.321C12 14.1888 12.0566 14.1132 12.1888 14.1132C12.5098 14.1132 12.8119 14.1132 13.2463 14.0944L18.0426 14ZM16.1165 17.7578V24.1027C16.3809 24.1216 16.6263 24.1405 16.8529 24.1405H17.8537C18.5902 24.1405 19.3266 24.0272 20.0253 23.8006C21.3776 23.362 22.1592 22.2618 22.1592 20.8548C22.1592 19.6765 21.5363 18.5276 20.4031 18.0978C19.7044 17.8145 18.949 17.7012 18.1748 17.7201C17.6838 17.7201 17.2495 17.7201 16.8907 17.739C16.513 17.72 16.2486 17.739 16.1165 17.7578ZM28.9196 18.8531H32.2242C32.413 18.8531 32.5641 18.9852 32.6208 19.1552C32.6784 19.3071 32.7165 19.4657 32.7341 19.6272C32.7719 19.816 32.8096 20.0238 32.8285 20.2126C32.8474 20.4203 32.8663 20.6469 32.8663 20.8924C33.4333 20.2304 34.1184 19.6797 34.8868 19.2684C35.7555 18.7774 36.7563 18.532 37.7572 18.532C37.8893 18.5131 38.0026 18.6075 38.0216 18.7397V22.4975C38.0216 22.6486 37.9271 22.7053 37.7195 22.7053C37.0397 22.6864 36.3409 22.743 35.68 22.8941C35.1345 23.0067 34.6027 23.1776 34.0937 23.4039C33.735 23.5738 33.3951 23.8004 33.1307 24.1025V33.7332C33.1307 33.922 33.0552 33.9976 32.8852 33.9976H29.1651C29.014 34.0165 28.8819 33.9221 28.863 33.771V23.234C28.863 22.7808 28.863 22.3086 28.8442 21.8177C28.8253 21.3267 28.8253 20.8357 28.8064 20.3448C28.8064 19.9105 28.7686 19.4951 28.7309 19.0607C28.712 18.9663 28.7687 18.8719 28.863 18.853C28.863 18.8341 28.9007 18.8341 28.9196 18.8531Z" fill="#2626E9"/>
</svg>