<svg xmlns="http://www.w3.org/2000/svg" width="51" height="48" viewBox="0 0 51 48" fill="none">
  <path d="M9.61251 0.5H41.8884C46.4114 0.5 50.078 4.16663 50.078 8.68966V39.3103C50.078 43.8334 46.4114 47.5 41.8884 47.5H9.61251C5.08949 47.5 1.42285 43.8334 1.42285 39.3103V8.68966C1.42285 4.16663 5.08949 0.5 9.61251 0.5Z" stroke="#131313"/>
  <path d="M26.4478 13.581L20.3402 24.0748L26.9216 35.2472C27.0561 35.4748 26.9982 35.5865 26.752 35.5865H22.6471C22.5455 35.5972 22.443 35.5771 22.353 35.5288C22.2629 35.4804 22.1895 35.4061 22.1423 35.3154L17.5099 26.8182H17.4747L12.9644 35.3154C12.9229 35.3963 12.8601 35.4643 12.7828 35.5121C12.7055 35.5598 12.6166 35.5856 12.5258 35.5865H8.57817C8.35265 35.5865 8.3092 35.4748 8.44369 35.2472L14.9154 24.381L8.74989 13.5127C8.61541 13.3327 8.66093 13.2417 8.88438 13.2417H12.9975C13.0857 13.2353 13.1738 13.2544 13.2515 13.2965C13.3293 13.3387 13.3933 13.4022 13.4361 13.4796L17.7809 21.8754H17.814L22.1361 13.4796C22.1787 13.4026 22.2425 13.3393 22.3198 13.2971C22.3971 13.255 22.4848 13.2357 22.5727 13.2417H26.3133C26.5616 13.2417 26.6051 13.3554 26.4478 13.581ZM36.4823 36.0003C34.0823 36.0003 32.2347 35.3196 30.8009 33.9603C29.3671 32.601 28.6471 30.592 28.6471 27.9313C28.6471 25.5134 29.4182 23.5272 30.9602 21.9727C31.7493 21.156 32.698 20.5104 33.7473 20.0762C34.7967 19.6419 35.9241 19.4283 37.0595 19.4485C37.5677 19.4395 38.0751 19.4937 38.5699 19.6099V12.6085C38.5662 12.5823 38.5685 12.5556 38.5769 12.5304C38.5852 12.5053 38.5992 12.4824 38.6178 12.4635C38.6365 12.4447 38.6592 12.4304 38.6843 12.4219C38.7093 12.4133 38.736 12.4106 38.7623 12.4141H42.5444C42.6499 12.4141 42.7037 12.4782 42.7037 12.6085V32.212C42.7037 33.0396 43.0616 33.7451 43.1175 34.3492C43.1289 34.4091 43.119 34.471 43.0895 34.5243C43.06 34.5776 43.0128 34.6188 42.9561 34.641C41.1002 35.5472 38.6671 36.0003 36.4823 36.0003ZM38.5782 32.7954V22.7879C38.4437 22.552 37.732 22.3451 37.0037 22.3451C36.4009 22.3295 35.8023 22.4486 35.2514 22.6938C34.7005 22.939 34.2114 23.304 33.8195 23.7623C32.8653 24.88 32.3505 26.3067 32.3713 27.7761C32.3713 29.5885 32.992 30.8299 33.8009 31.6927C34.1833 32.1312 34.6543 32.4836 35.1828 32.7269C35.7113 32.9701 36.2854 33.0985 36.8671 33.1037C37.6389 33.1037 38.394 32.9879 38.5782 32.7954Z" fill="#FF61F6"/>
</svg>